<?xml version="1.0" encoding="UTF-8" standalone="no"?>
<svg
   xmlns:dc="http://purl.org/dc/elements/1.1/"
   xmlns:cc="http://creativecommons.org/ns#"
   xmlns:rdf="http://www.w3.org/1999/02/22-rdf-syntax-ns#"
   xmlns:svg="http://www.w3.org/2000/svg"
   xmlns="http://www.w3.org/2000/svg"
   xmlns:sodipodi="http://sodipodi.sourceforge.net/DTD/sodipodi-0.dtd"
   xmlns:inkscape="http://www.inkscape.org/namespaces/inkscape"
   width="75"
   height="89.5"
   viewBox="0 0 75 89.5"
   version="1.1"
   id="svg8"
   sodipodi:docname="axis-ySimpleLogoAv1(color).svg"
   style="fill:none"
   inkscape:version="0.92.3 (2405546, 2018-03-11)">
  <metadata
     id="metadata14">
    <rdf:RDF>
      <cc:Work
         rdf:about="">
        <dc:format>image/svg+xml</dc:format>
        <dc:type
           rdf:resource="http://purl.org/dc/dcmitype/StillImage" />
        <dc:title></dc:title>
      </cc:Work>
    </rdf:RDF>
  </metadata>
  <defs
     id="defs12" />
  <sodipodi:namedview
     pagecolor="#ffffff"
     bordercolor="#666666"
     borderopacity="1"
     objecttolerance="10"
     gridtolerance="10"
     guidetolerance="10"
     inkscape:pageopacity="0"
     inkscape:pageshadow="2"
     inkscape:window-width="851"
     inkscape:window-height="386"
     id="namedview10"
     showgrid="false"
     inkscape:zoom="1.9458885"
     inkscape:cx="-36.0673"
     inkscape:cy="60.983765"
     inkscape:window-x="1963"
     inkscape:window-y="272"
     inkscape:window-maximized="0"
     inkscape:current-layer="svg8" />
  <g
     id="g824"
     transform="matrix(0.49019608,0,0,0.49019608,0,0.284314)"
     style="fill:#cedfd7;fill-opacity:1">
    <path
       id="path2"
       d="m 77,91.738 v 2.1293 H 66.0505 c -5.828,0 -8.6537,-4.6135 -9.1835,-8.3398 C 50.8624,90.6733 42.5619,95.9966 30.7294,95.9966 14.8349,96.174 0,89.4312 0,72.929 0,45.2479 56.867,42.5863 56.867,25.3743 v -5.1458 c 0,-5.3233 -6.0046,-14.018 -16.9542,-14.018 -17.4839,0 -21.1926,17.212 -21.1926,22.7127 0,0 -1.9427,1.7744 -4.7684,1.7744 -3.8853,0 -7.06418,-2.4842 -7.06418,-7.8075 C 6.88762,12.2436 21.3693,0 40.0895,0 56.6904,0 68.3463,7.4526 68.3463,28.2134 v 48.7968 c 0,8.6947 2.8257,14.7278 8.6537,14.7278 z M 56.867,75.4132 V 37.6179 c -13.7753,9.9368 -44.6812,18.9864 -44.6812,34.7788 0,12.7759 9.1835,17.3894 20.133,17.3894 9.1835,0.1774 21.8991,-8.5173 24.5482,-14.3729 z"
       inkscape:connector-curvature="0"
       style="fill:#cedfd7;fill-opacity:1" />
    <path
       id="path4"
       d="m 62,108.645 v 3.71 C 62,112.677 61.6471,113 61.2941,113 H 14.7059 C 14.3529,113 14,112.677 14,112.355 v -3.71 C 14,108.323 14.3529,108 14.7059,108 h 46.5882 c 0.353,0 0.7059,0.323 0.7059,0.645 z"
       inkscape:connector-curvature="0"
       style="fill:#cedfd7;fill-opacity:1" />
    <path
       id="path6"
       d="m 153,50.1774 v 2.1291 c -4.585,0 -7.583,6.0322 -10.582,14.9032 L 109.263,159.468 C 106.617,166.565 98.6811,182 85.2777,182 c -13.7561,0 -24.5141,-9.935 -24.5141,-20.758 0,-7.452 4.9381,-12.774 9.8762,-12.774 2.9981,0 4.0563,2.484 4.0563,4.79 0,2.307 -1.94,5.855 -1.94,9.403 0,6.21 4.5854,12.952 14.2852,12.952 10.2289,0 16.7537,-16.145 16.7537,-16.145 l 6.349,-17.21 L 74.5197,68.8065 C 71.1689,62.4194 64.8199,52.129 59,52.129 V 50 h 32.6266 v 2.129 c -6.3489,0.3549 -7.9362,9.7581 -4.5853,16.6775 l 28.2177,59.9675 19.223,-58.1934 c 2.646,-7.9838 2.998,-17.7419 -4.762,-18.2741 v -2.1291 z"
       inkscape:connector-curvature="0"
       style="fill:#cedfd7;fill-opacity:1" />
  </g>
</svg>
