<?xml version="1.0" encoding="UTF-8" standalone="no"?>
<svg
   xmlns:dc="http://purl.org/dc/elements/1.1/"
   xmlns:cc="http://creativecommons.org/ns#"
   xmlns:rdf="http://www.w3.org/1999/02/22-rdf-syntax-ns#"
   xmlns:svg="http://www.w3.org/2000/svg"
   xmlns="http://www.w3.org/2000/svg"
   xmlns:sodipodi="http://sodipodi.sourceforge.net/DTD/sodipodi-0.dtd"
   xmlns:inkscape="http://www.inkscape.org/namespaces/inkscape"
   width="60"
   height="71"
   viewBox="0 0 60 71"
   version="1.1"
   id="svg8"
   sodipodi:docname="axis-ySimpleLogoAv1.svg"
   style="fill:none"
   inkscape:version="0.92.3 (2405546, 2018-03-11)">
  <metadata
     id="metadata14">
    <rdf:RDF>
      <cc:Work
         rdf:about="">
        <dc:format>image/svg+xml</dc:format>
        <dc:type
           rdf:resource="http://purl.org/dc/dcmitype/StillImage" />
        <dc:title></dc:title>
      </cc:Work>
    </rdf:RDF>
  </metadata>
  <defs
     id="defs12" />
  <sodipodi:namedview
     pagecolor="#ffffff"
     bordercolor="#666666"
     borderopacity="1"
     objecttolerance="10"
     gridtolerance="10"
     guidetolerance="10"
     inkscape:pageopacity="0"
     inkscape:pageshadow="2"
     inkscape:window-width="1920"
     inkscape:window-height="1017"
     id="namedview10"
     showgrid="false"
     inkscape:zoom="9.292081"
     inkscape:cx="40"
     inkscape:cy="34.133068"
     inkscape:window-x="-8"
     inkscape:window-y="-8"
     inkscape:window-maximized="1"
     inkscape:current-layer="svg8" />
  <g
     id="g824"
     transform="matrix(1.036864,0,0,1.036864,-11.059711,-9.7071926)">
    <path
       id="path2"
       d="m 39.7332,43.7999 v 0.8 h -4.1334 c -2.2,0 -3.2666,-1.7333 -3.4666,-3.1333 -2.2667,1.9333 -5.4,3.9333 -9.8667,3.9333 -6,0.0667 -11.6,-2.4667 -11.6,-8.6667 0,-10.4 21.4667,-11.3999 21.4667,-17.8666 v -1.9333 c 0,-2 -2.2667,-5.2667 -6.4,-5.2667 -6.6,0 -8,6.4667 -8,8.5333 0,0 -0.7334,0.6667 -1.8,0.6667 -1.4667,0 -2.6667,-0.9333 -2.6667,-2.9333 0,-4 5.4667,-8.60005 12.5333,-8.60005 6.2667,0 10.6667,2.80005 10.6667,10.60005 v 18.3333 c 0,3.2667 1.0667,5.5333 3.2667,5.5333 z m -7.6,-6.1333 v -14.2 c -5.2,3.7333 -16.8667,7.1333 -16.8667,13.0666 0,4.8 3.4667,6.5334 7.6,6.5334 3.4667,0.0666 8.2667,-3.2 9.2667,-5.4 z"
       inkscape:connector-curvature="0"
       style="fill:#000000" />
    <path
       id="path4"
       d="m 34.2666,50.2 v 1.5333 C 34.2666,51.8667 34.1333,52 34,52 H 16.4 c -0.1334,0 -0.2667,-0.1333 -0.2667,-0.2667 V 50.2 c 0,-0.1333 0.1333,-0.2667 0.2667,-0.2667 H 34 c 0.1333,0 0.2666,0.1334 0.2666,0.2667 z"
       inkscape:connector-curvature="0"
       style="fill:#000000" />
    <path
       id="path6"
       d="m 68.5333,28.3333 v 0.8 c -1.7333,0 -2.8666,2.2666 -4,5.6 L 52,69.3999 c -1,2.6667 -4,8.4667 -9.0667,8.4667 -5.2,0 -9.2666,-3.7333 -9.2666,-7.8 0,-2.8 1.8666,-4.8 3.7333,-4.8 1.1333,0 1.5333,0.9333 1.5333,1.8 0,0.8667 -0.7333,2.2 -0.7333,3.5333 0,2.3334 1.7333,4.8667 5.4,4.8667 3.8667,0 6.3333,-6.0667 6.3333,-6.0667 l 2.4,-6.4666 -13.4666,-27.6 C 37.6,32.9333 35.2,29.0666 33,29.0666 v -0.8 h 12.3333 v 0.8 c -2.4,0.1333 -3,3.6667 -1.7333,6.2667 l 10.6667,22.5333 7.2666,-21.8667 c 1,-3 1.1334,-6.6666 -1.8,-6.8666 v -0.8 z"
       inkscape:connector-curvature="0"
       style="fill:#000000" />
  </g>
</svg>
